<?xml version="1.0" encoding="UTF-8"?>
<svg xmlns="http://www.w3.org/2000/svg" xmlns:xlink="http://www.w3.org/1999/xlink" width="576pt" height="512pt" viewBox="0 0 576 512" version="1.1">
<g id="surface1">
<path style=" stroke:none;fill-rule:nonzero;fill:rgb(96.470588%,96.470588%,13.333334%);fill-opacity:1;" d="M 480 416 L 480 432 C 480 458.511719 458.511719 480 432 480 L 48 480 C 21.488281 480 0 458.511719 0 432 L 0 176 C 0 149.488281 21.488281 128 48 128 L 64 128 L 64 176 L 54 176 C 50.6875 176 48 178.6875 48 182 L 48 426 C 48 429.3125 50.6875 432 54 432 L 426 432 C 429.3125 432 432 429.3125 432 426 L 432 416 Z M 522 80 L 150 80 C 146.6875 80 144 82.6875 144 86 L 144 330 C 144 333.3125 146.6875 336 150 336 L 522 336 C 525.3125 336 528 333.3125 528 330 L 528 86 C 528 82.6875 525.3125 80 522 80 Z M 528 32 C 554.511719 32 576 53.488281 576 80 L 576 336 C 576 362.511719 554.511719 384 528 384 L 144 384 C 117.488281 384 96 362.511719 96 336 L 96 80 C 96 53.488281 117.488281 32 144 32 Z M 264 144 C 264 166.089844 246.089844 184 224 184 C 201.910156 184 184 166.089844 184 144 C 184 121.910156 201.910156 104 224 104 C 246.089844 104 264 121.910156 264 144 Z M 192 240 L 231.515625 200.484375 C 236.199219 195.800781 243.800781 195.800781 248.484375 200.484375 L 288 240 L 391.515625 136.484375 C 396.199219 131.800781 403.800781 131.800781 408.484375 136.484375 L 480 208 L 480 288 L 192 288 Z M 192 240 "/>
</g>
</svg>
